<?xml version="1.0" standalone="no"?>
<!DOCTYPE svg PUBLIC "-//W3C//DTD SVG 20010904//EN"
 "http://www.w3.org/TR/2001/REC-SVG-20010904/DTD/svg10.dtd">
<svg version="1.0" xmlns="http://www.w3.org/2000/svg"
 width="2048.000000pt" height="2048.000000pt" viewBox="0 0 2048.000000 2048.000000"
 preserveAspectRatio="xMidYMid meet">

<g transform="translate(0.000000,2048.000000) scale(0.100000,-0.100000)"
fill="#000000" stroke="none">
<path d="M10212 14782 c-61 -25 -136 -93 -161 -145 -26 -54 -47 -165 -34 -178
6 -6 21 5 41 30 42 52 127 99 202 113 118 20 232 -21 314 -114 l43 -50 6 29
c7 36 -8 113 -32 166 -22 51 -80 107 -141 139 -60 31 -176 36 -238 10z"/>
<path d="M9906 13968 c-9 -12 -16 -26 -16 -31 0 -5 -36 -99 -79 -210 -44 -111
-117 -296 -162 -412 -45 -115 -109 -277 -142 -360 -33 -82 -66 -168 -74 -190
-8 -22 -48 -125 -89 -230 -41 -104 -108 -275 -149 -380 -41 -104 -102 -260
-136 -345 -34 -85 -72 -183 -85 -218 -13 -35 -58 -150 -100 -255 -41 -106 -98
-250 -126 -322 -27 -71 -93 -238 -145 -370 -51 -132 -130 -332 -174 -445 -44
-113 -111 -284 -149 -380 -96 -246 -185 -471 -280 -715 -46 -115 -88 -215 -94
-222 -8 -9 -30 -5 -96 18 -47 17 -136 41 -199 55 -170 36 -264 31 -318 -19
l-23 -20 0 -1129 0 -1128 523 2 522 3 2 640 c2 352 3 646 3 653 0 10 403 12
1998 10 l1997 -3 7 -340 c4 -187 10 -481 14 -652 l6 -313 509 0 509 0 0 1120
0 1120 -326 2 -326 3 -78 190 c-93 230 -499 1256 -533 1350 -8 22 -24 63 -35
90 -79 197 -111 277 -159 400 -30 77 -102 259 -160 405 -57 146 -131 333 -163
415 -33 83 -92 231 -131 330 -39 99 -78 198 -86 220 -8 22 -79 204 -159 405
-80 201 -167 421 -194 490 -27 69 -96 246 -154 393 -58 148 -106 271 -106 274
0 3 -12 32 -26 64 l-27 59 -388 0 -388 0 -15 -22z m409 -1740 c4 -13 37 -97
72 -188 36 -91 82 -212 103 -270 21 -58 73 -195 115 -305 160 -418 279 -733
307 -809 15 -43 57 -153 92 -245 35 -91 78 -204 96 -251 18 -47 48 -125 67
-175 20 -49 48 -124 63 -165 26 -71 160 -426 236 -625 60 -156 104 -280 104
-292 0 -10 -258 -13 -1255 -13 -997 0 -1255 3 -1255 13 0 17 56 175 190 537
61 168 131 359 155 425 24 66 62 170 85 230 23 61 62 164 85 230 24 66 56 152
70 190 15 39 42 113 60 165 19 52 41 113 49 135 97 261 235 636 345 940 40
110 94 256 121 325 26 69 51 135 55 148 3 12 12 22 20 22 8 0 17 -10 20 -22z"/>
</g>
</svg>
