<?xml version="1.0" ?>
<!DOCTYPE svg  PUBLIC '-//W3C//DTD SVG 1.1//EN'  'http://www.w3.org/Graphics/SVG/1.1/DTD/svg11.dtd'>
<!-- Uploaded to: SVG Repo, www.svgrepo.com, Generator: SVG Repo Mixer Tools -->
<svg width="800px" height="800px" viewBox="0 0 512 512" enable-background="new 0 0 512 512" version="1.1" xml:space="preserve" xmlns="http://www.w3.org/2000/svg" xmlns:xlink="http://www.w3.org/1999/xlink">
<g id="_x30_1"/>
<g id="_x30_2"/>
<g id="_x30_3"/>
<g id="_x30_4"/>
<g id="_x30_5"/>
<g id="_x30_6"/>
<g id="_x30_7"/>
<g id="_x30_8"/>
<g id="_x30_9"/>
<g id="_x31_0"/>
<g id="_x31_1"/>
<g id="_x31_2"/>
<g id="_x31_3"/>
<g id="_x31_4"/>
<g id="_x31_5"/>
<g id="_x31_6"/>
<g id="_x31_7"/>
<g id="_x31_8"/>
<g id="_x31_9"/>
<g id="_x32_0"/>
<g id="_x32_1"/>
<g id="_x32_2"/>
<g id="_x32_3"/>
<g id="_x32_4"/>
<g id="_x32_5"/>
<g id="_x32_6"/>
<g id="_x32_7"/>
<g id="_x32_8"/>
<g id="_x32_9"/>
<g id="_x33_0"/>
<g id="_x33_1"/>
<g id="_x33_2"/>
<g id="_x33_3"/>
<g id="_x33_4"/>
<g id="_x33_5"/>
<g id="_x33_6"/>
<g id="_x33_7"/>
<g id="_x33_8"/>
<g id="_x33_9"/>
<g id="_x34_0"/>
<g id="_x34_1"/>
<g id="_x34_2"/>
<g id="_x34_3"/>
<g id="_x34_4"/>
<g id="_x34_5"/>
<g id="_x34_6"/>
<g id="_x34_7"/>
<g id="_x34_8"/>
<g id="_x34_9"/>
<g id="_x35_0">
<g>
<path clip-rule="evenodd" d="    M-807.803-1039.144c88.705,5.973,79.16,346.885,58.384,418.989c-5.572,19.29-9.773,37.952-24.748,49.155    c-20.262-25.521-58.699-22.806-73.216,0c-15.003-11.203-18.347-30.15-24.749-49.155    C-894.565-686.657-895.851-1045.06-807.803-1039.144L-807.803-1039.144z" fill="#F5D8B3" fill-rule="evenodd" stroke="#6C6CAA" stroke-linecap="round" stroke-linejoin="round" stroke-miterlimit="10" stroke-width="20.1478"/>
<line fill="none" stroke="#6C6CAA" stroke-linecap="round" stroke-linejoin="round" stroke-miterlimit="10" stroke-width="20.1478" x1="-807.803" x2="-807.803" y1="-1027.57" y2="-653.049"/>
<line fill="none" stroke="#6C6CAA" stroke-linecap="round" stroke-linejoin="round" stroke-miterlimit="10" stroke-width="20.1478" x1="-807.803" x2="-807.803" y1="-622.898" y2="-623.128"/>
<path d="    M-871.045-936.004c3.515,93.452,145.432,101.167,130.257,264.122C-795.143-832.007-887.02-772.879-871.045-936.004    L-871.045-936.004z" fill="none" stroke="#6C6CAA" stroke-linecap="round" stroke-linejoin="round" stroke-miterlimit="10" stroke-width="20.1478"/>
</g>
<g>
<path clip-rule="evenodd" d="    M-368.283-877.821l-0.229,17.318l312.382,0.057c-4.686,24.949-55.813,75.59-87.791,90.022    c-13.945-1.172-28.406-3.229-43.408-6.173c-54.24-13.289-103.366-14.404-146.061-0.286    c-45.639,12.031-82.589,14.232-106.566,1.715c-4.629-2.344-9.23-4.201-13.86-5.63    C-497.568-822.265-435.783-877.878-368.283-877.821L-368.283-877.821z" fill="#F9E5D3" fill-rule="evenodd" stroke="#6C6CAA" stroke-linecap="round" stroke-linejoin="round" stroke-miterlimit="10" stroke-width="20.1764"/>
<line fill="none" stroke="#6C6CAA" stroke-linecap="round" stroke-linejoin="round" stroke-miterlimit="10" stroke-width="20.1764" x1="-76.533" x2="-394.688" y1="-825.98" y2="-825.98"/>
<path d="    M-38.01-780.569c-42.752,13.231-92.105,15.261-149.318,3.973c-54.24-13.289-103.366-14.404-146.061-0.286    c-45.639,12.031-82.589,14.232-106.566,1.715c-24.348-12.46-48.696-10.975-73.044-3.229" fill="none" stroke="#6C6CAA" stroke-linecap="round" stroke-linejoin="round" stroke-miterlimit="10" stroke-width="20.1764"/>
<path d="    M-94.564-726.242c-36.266,3.602-75.275,7.06-115.426-12.745c-31.693-12.118-62.9-20.634-102.537-0.258    c-68.93,26.778-112.682,9.803-126.685,5.83c-14.003-4.001-32.807-19.319-56.098-6.459" fill="none" stroke="#6C6CAA" stroke-linecap="round" stroke-linejoin="round" stroke-miterlimit="10" stroke-width="20.1764"/>
<line fill="none" stroke="#6C6CAA" stroke-linecap="round" stroke-linejoin="round" stroke-miterlimit="10" stroke-width="20.1764" x1="-68.531" x2="-54.928" y1="-730.786" y2="-733.615"/>
<polygon clip-rule="evenodd" fill="#DCF2FF" fill-rule="evenodd" points="    -316.757,-907 -317.1,-860.474 -182.842,-860.332 -260.059,-906.915   " stroke="#6C6CAA" stroke-linecap="round" stroke-linejoin="round" stroke-miterlimit="10" stroke-width="20.1764"/>
<line fill="none" stroke="#6C6CAA" stroke-linecap="round" stroke-linejoin="round" stroke-miterlimit="10" stroke-width="20.1764" x1="-280.149" x2="-280.063" y1="-906.943" y2="-860.217"/>
<line fill="none" stroke="#6C6CAA" stroke-linecap="round" stroke-linejoin="round" stroke-miterlimit="10" stroke-width="20.1764" x1="-426.467" x2="-464.732" y1="-827.781" y2="-827.781"/>
</g>
<g>
<path clip-rule="evenodd" d="    M-1367.051-980.464v353.915c-1.714,50.813-78.103,62.358-100.622,0l-79.274-333.282    C-1550.52-1031.02-1371.537-1043.794-1367.051-980.464L-1367.051-980.464z" fill="#B0F0A8" fill-rule="evenodd" stroke="#6C6CAA" stroke-linecap="round" stroke-linejoin="round" stroke-miterlimit="10" stroke-width="20.1764"/>
<path d="    M-1507.31-793.189c40.237-39.724,86.619-48.612,140.259-21.234" fill="none" stroke="#6C6CAA" stroke-linecap="round" stroke-linejoin="round" stroke-miterlimit="10" stroke-width="20.1764"/>
<path d="    M-1487.22-708.683c37.637-62.645,78.074-58.015,120.169-13.317" fill="none" stroke="#6C6CAA" stroke-linecap="round" stroke-linejoin="round" stroke-miterlimit="10" stroke-width="20.1764"/>
<line fill="none" stroke="#6C6CAA" stroke-linecap="round" stroke-linejoin="round" stroke-miterlimit="10" stroke-width="20.1764" x1="-1509.596" x2="-1484.448" y1="-960.345" y2="-854.69"/>
<line fill="none" stroke="#6C6CAA" stroke-linecap="round" stroke-linejoin="round" stroke-miterlimit="10" stroke-width="20.1764" x1="-1457.099" x2="-1445.868" y1="-978.149" y2="-859.72"/>
<line fill="none" stroke="#6C6CAA" stroke-linecap="round" stroke-linejoin="round" stroke-miterlimit="10" stroke-width="20.1764" x1="-1406.631" x2="-1405.63" y1="-935.167" y2="-864.75"/>
<line fill="none" stroke="#6C6CAA" stroke-linecap="round" stroke-linejoin="round" stroke-miterlimit="10" stroke-width="20.1764" x1="-1407.288" x2="-1407.288" y1="-968.032" y2="-968.29"/>
<path clip-rule="evenodd" d="    M-1305.237-980.464v353.915c1.715,50.813,78.103,62.358,100.622,0l79.274-333.282    C-1121.768-1031.02-1300.75-1043.794-1305.237-980.464L-1305.237-980.464z" fill="#B0F0A8" fill-rule="evenodd" stroke="#6C6CAA" stroke-linecap="round" stroke-linejoin="round" stroke-miterlimit="10" stroke-width="20.1764"/>
<path d="    M-1164.978-793.189c-40.237-39.724-86.619-48.612-140.259-21.234" fill="none" stroke="#6C6CAA" stroke-linecap="round" stroke-linejoin="round" stroke-miterlimit="10" stroke-width="20.1764"/>
<path d="    M-1185.068-708.683c-37.637-62.645-78.074-58.015-120.169-13.317" fill="none" stroke="#6C6CAA" stroke-linecap="round" stroke-linejoin="round" stroke-miterlimit="10" stroke-width="20.1764"/>
<line fill="none" stroke="#6C6CAA" stroke-linecap="round" stroke-linejoin="round" stroke-miterlimit="10" stroke-width="20.1764" x1="-1162.692" x2="-1187.84" y1="-960.345" y2="-854.69"/>
<line fill="none" stroke="#6C6CAA" stroke-linecap="round" stroke-linejoin="round" stroke-miterlimit="10" stroke-width="20.1764" x1="-1215.189" x2="-1226.419" y1="-978.149" y2="-859.72"/>
<line fill="none" stroke="#6C6CAA" stroke-linecap="round" stroke-linejoin="round" stroke-miterlimit="10" stroke-width="20.1764" x1="-1265.657" x2="-1266.657" y1="-935.167" y2="-864.75"/>
<line fill="none" stroke="#6C6CAA" stroke-linecap="round" stroke-linejoin="round" stroke-miterlimit="10" stroke-width="20.1764" x1="-1265" x2="-1265" y1="-968.032" y2="-968.29"/>
</g>
<g>
<path clip-rule="evenodd" d="    M23.743-834.039l105.452-35.151l40.18,22.605h263.658c67.5,0.657,90.162,79.477,20.89,89.45c0-0.314,0-0.628,0-0.942    c0-22.206-17.976-40.182-40.151-40.182c-22.205,0-40.181,17.976-40.181,40.182c0,0.628,0,1.257,0.029,1.886H154.914    c0.029-0.629,0.029-1.258,0.029-1.886c0-22.206-17.976-40.182-40.18-40.182c-22.177,0-40.181,17.976-40.181,40.182    c0,0.171,0,0.314,0.028,0.485L23-774.11L23.743-834.039z" fill="#FDB7CA" fill-rule="evenodd" stroke="#6C6CAA" stroke-linecap="round" stroke-linejoin="round" stroke-miterlimit="10" stroke-width="20.1478"/>
<polygon clip-rule="evenodd" fill="#DCF2FF" fill-rule="evenodd" points="    264.167,-910 323.18,-846.584 169.375,-846.584 129.195,-869.19   " stroke="#6C6CAA" stroke-linecap="round" stroke-linejoin="round" stroke-miterlimit="10" stroke-width="20.1478"/>
<path clip-rule="evenodd" d="    M114.764-717.896c22.146,0,40.18-18.062,40.18-40.181c0-22.12-18.033-40.182-40.18-40.182c-22.119,0-40.181,18.062-40.181,40.182    C74.583-735.958,92.645-717.896,114.764-717.896L114.764-717.896z" fill="#F9E5D3" fill-rule="evenodd" stroke="#6C6CAA" stroke-linecap="round" stroke-linejoin="round" stroke-miterlimit="10" stroke-width="20.1478"/>
<path clip-rule="evenodd" d="    M413.771-717.896c22.119,0,40.151-18.062,40.151-40.181c0-22.12-18.032-40.182-40.151-40.182    c-22.147,0-40.181,18.062-40.181,40.182C373.591-735.958,391.624-717.896,413.771-717.896L413.771-717.896z" fill="#F9E5D3" fill-rule="evenodd" stroke="#6C6CAA" stroke-linecap="round" stroke-linejoin="round" stroke-miterlimit="10" stroke-width="20.1478"/>
<line fill="none" stroke="#6C6CAA" stroke-linecap="round" stroke-linejoin="round" stroke-miterlimit="10" stroke-width="20.1478" x1="175.033" x2="301.833" y1="-805.203" y2="-805.203"/>
<line fill="none" stroke="#6C6CAA" stroke-linecap="round" stroke-linejoin="round" stroke-miterlimit="10" stroke-width="20.1478" x1="462.554" x2="493.617" y1="-809.546" y2="-809.089"/>
<polyline fill="none" points="    53.235,-798.258 30.658,-798.544 23.314,-798.629   " stroke="#6C6CAA" stroke-linecap="round" stroke-linejoin="round" stroke-miterlimit="10" stroke-width="20.1478"/>
<line fill="none" stroke="#6C6CAA" stroke-linecap="round" stroke-linejoin="round" stroke-miterlimit="10" stroke-width="20.1478" x1="219.186" x2="246.277" y1="-896.397" y2="-846.584"/>
<line fill="none" stroke="#6C6CAA" stroke-linecap="round" stroke-linejoin="round" stroke-miterlimit="10" stroke-width="20.1478" x1="342.385" x2="342.385" y1="-803.602" y2="-803.86"/>
<line fill="none" stroke="#6C6CAA" stroke-linecap="round" stroke-linejoin="round" stroke-miterlimit="10" stroke-width="20.1478" x1="413.771" x2="413.771" y1="-757.848" y2="-758.077"/>
<line fill="none" stroke="#6C6CAA" stroke-linecap="round" stroke-linejoin="round" stroke-miterlimit="10" stroke-width="20.1478" x1="114.764" x2="114.764" y1="-757.848" y2="-758.077"/>
</g>
<g>
<path clip-rule="evenodd" d="    M619.998-895.584c-26.377,33.266-35.837,74.99-36.351,121.173v76.934h11.574c7.858,0,14.26,6.43,14.26,14.26v0.887h29.264    c0.657-21.52,18.289-38.753,39.98-38.753c21.662,0,39.322,17.233,39.951,38.753h132.687c0.629-21.52,18.289-38.753,39.951-38.753    c21.69,0,39.323,17.233,39.98,38.753h36.036v-0.887c0-7.83,6.431-14.26,14.261-14.26h11.574v-78.134    c2.143-39.981-6.173-79.991-26.635-119.973H619.998z" fill="#DBBEB9" fill-rule="evenodd" stroke="#6C6CAA" stroke-linecap="round" stroke-linejoin="round" stroke-miterlimit="10" stroke-width="20.1764"/>
<path clip-rule="evenodd" d="    M706.017-927.077h307.754c-11.889-18.891-31.722-31.179-63.015-33.923H767.802C741.139-958.799,719.763-948.683,706.017-927.077    L706.017-927.077z" fill="#F5D8B3" fill-rule="evenodd" stroke="#6C6CAA" stroke-linecap="round" stroke-linejoin="round" stroke-miterlimit="10" stroke-width="20.1764"/>
<path clip-rule="evenodd" d="    M638.573-836.541H691.1c7.458,0,13.546,6.116,13.546,13.575v21.348c0,7.459-6.088,13.547-13.546,13.547h-52.526    c-7.486,0-13.574-6.088-13.574-13.547v-21.348C624.999-830.425,631.087-836.541,638.573-836.541L638.573-836.541z" fill="#DCF2FF" fill-rule="evenodd" stroke="#6C6CAA" stroke-linecap="round" stroke-linejoin="round" stroke-miterlimit="10" stroke-width="20.1764"/>
<path clip-rule="evenodd" d="    M889.143-836.541h52.526c7.458,0,13.546,6.116,13.546,13.575v21.348c0,7.459-6.088,13.547-13.546,13.547h-52.526    c-7.487,0-13.574-6.088-13.574-13.547v-21.348C875.568-830.425,881.655-836.541,889.143-836.541L889.143-836.541z" fill="#DCF2FF" fill-rule="evenodd" stroke="#6C6CAA" stroke-linecap="round" stroke-linejoin="round" stroke-miterlimit="10" stroke-width="20.1764"/>
<path clip-rule="evenodd" d="    M767.63-836.541h52.526c7.487,0,13.574,6.116,13.574,13.575v21.348c0,7.459-6.087,13.547-13.574,13.547H767.63    c-7.458,0-13.545-6.088-13.545-13.547v-21.348C754.085-830.425,760.172-836.541,767.63-836.541L767.63-836.541z" fill="#DCF2FF" fill-rule="evenodd" stroke="#6C6CAA" stroke-linecap="round" stroke-linejoin="round" stroke-miterlimit="10" stroke-width="20.1764"/>
<line fill="none" stroke="#6C6CAA" stroke-linecap="round" stroke-linejoin="round" stroke-miterlimit="10" stroke-width="20.1764" x1="601.251" x2="911.634" y1="-864.062" y2="-864.062"/>
<line fill="none" stroke="#6C6CAA" stroke-linecap="round" stroke-linejoin="round" stroke-miterlimit="10" stroke-width="20.1764" x1="870.796" x2="890.172" y1="-749.862" y2="-749.862"/>
<path clip-rule="evenodd" d="    M1004.769-697.478h-23.177c-7.83,0-14.261,6.43-14.261,14.26v1.772c0,7.859,6.431,14.261,14.261,14.261h23.177    c7.83,0,14.231-6.401,14.231-14.261v-1.772C1019-691.048,1012.599-697.478,1004.769-697.478L1004.769-697.478z" fill="#F5D8B3" fill-rule="evenodd" stroke="#6C6CAA" stroke-linecap="round" stroke-linejoin="round" stroke-miterlimit="10" stroke-width="20.1764"/>
<path clip-rule="evenodd" d="    M595.222-697.478h-23.148c-7.859,0-14.26,6.43-14.26,14.26v1.772c0,7.859,6.4,14.261,14.26,14.261h23.148    c7.858,0,14.26-6.401,14.26-14.261v-1.772C609.481-691.048,603.08-697.478,595.222-697.478L595.222-697.478z" fill="#F5D8B3" fill-rule="evenodd" stroke="#6C6CAA" stroke-linecap="round" stroke-linejoin="round" stroke-miterlimit="10" stroke-width="20.1764"/>
<path d="    M986.507-780.47c2.115,0,4.144,0.429,6.059,1.2v46.068c-1.915,0.771-3.943,1.2-6.059,1.2c-10.717,0-19.376-10.859-19.376-24.234    S975.79-780.47,986.507-780.47L986.507-780.47z" fill="none" stroke="#6C6CAA" stroke-linecap="round" stroke-linejoin="round" stroke-miterlimit="10" stroke-width="20.1764"/>
<path clip-rule="evenodd" d="    M678.726-641.121c22.004,0,39.98-17.976,39.98-39.981c0-22.034-17.977-39.981-39.98-39.981c-22.033,0-39.98,17.947-39.98,39.981    C638.745-659.097,656.692-641.121,678.726-641.121L678.726-641.121z" fill="#F9E5D3" fill-rule="evenodd" stroke="#6C6CAA" stroke-linecap="round" stroke-linejoin="round" stroke-miterlimit="10" stroke-width="20.1764"/>
<path clip-rule="evenodd" d="    M891.314-641.121c22.033,0,39.98-17.976,39.98-39.981c0-22.034-17.947-39.981-39.98-39.981c-22.005,0-39.979,17.947-39.979,39.981    C851.335-659.097,869.31-641.121,891.314-641.121L891.314-641.121z" fill="#F9E5D3" fill-rule="evenodd" stroke="#6C6CAA" stroke-linecap="round" stroke-linejoin="round" stroke-miterlimit="10" stroke-width="20.1764"/>
<line fill="none" stroke="#6C6CAA" stroke-linecap="round" stroke-linejoin="round" stroke-miterlimit="10" stroke-width="20.1764" x1="678.726" x2="678.726" y1="-681.103" y2="-681.359"/>
<line fill="none" stroke="#6C6CAA" stroke-linecap="round" stroke-linejoin="round" stroke-miterlimit="10" stroke-width="20.1764" x1="891.314" x2="891.314" y1="-680.874" y2="-681.103"/>
<line fill="none" stroke="#6C6CAA" stroke-linecap="round" stroke-linejoin="round" stroke-miterlimit="10" stroke-width="20.1764" x1="790.836" x2="790.836" y1="-952.512" y2="-895.584"/>
<line fill="none" stroke="#6C6CAA" stroke-linecap="round" stroke-linejoin="round" stroke-miterlimit="10" stroke-width="20.1764" x1="926.522" x2="926.522" y1="-954.941" y2="-895.584"/>
</g>
<g>
<polygon clip-rule="evenodd" fill="#F9E5D3" fill-rule="evenodd" points="    -1250.93,-313.926 -1178,-313.926 -1178,-276.66 -1242.813,-276.66 -1242.813,-299.351 -1250.93,-299.351   " stroke="#6C6CAA" stroke-linecap="round" stroke-linejoin="round" stroke-miterlimit="10" stroke-width="20.1764"/>
<path clip-rule="evenodd" d="    M-1501.214-299.351h258.4v63.987c-19.147,22.691-44.324,31.322-76.417,23.777l-51.583-55.356l-55.068,60.758    c-28.321,0.743-53.469-8.059-75.332-26.749V-299.351z" fill="#DCF2FF" fill-rule="evenodd" stroke="#6C6CAA" stroke-linecap="round" stroke-linejoin="round" stroke-miterlimit="10" stroke-width="20.1764"/>
<polygon clip-rule="evenodd" fill="#FDB7CA" fill-rule="evenodd" points="    -1371.613,-189.981 -1330.147,-223.304 -1370.813,-266.943 -1414.595,-218.617   " stroke="#6C6CAA" stroke-linecap="round" stroke-linejoin="round" stroke-miterlimit="10" stroke-width="20.1764"/>
<path d="    M-1413.737-163.661c-0.943,17.919,3.229,29.607,25.12,30.379h34.007c18.805-0.914,23.063-10.459,23.092-27.549" fill="none" stroke="#6C6CAA" stroke-linecap="round" stroke-linejoin="round" stroke-miterlimit="10" stroke-width="20.1764"/>
<rect clip-rule="evenodd" fill="#FDB7CA" fill-rule="evenodd" height="184.274" stroke="#6C6CAA" stroke-linecap="round" stroke-linejoin="round" stroke-miterlimit="10" stroke-width="20.1764" width="31.607" x="-1220.952" y="-497"/>
<path clip-rule="evenodd" d="    M-1192.603-121.937V-276.66h-30.778v157.153c-14.546,27.063-35.122,42.039-64.786,38.866    c-39.266-2.571-61.728-19.833-66.443-52.642h-34.007c8.03,49.184,51.211,85.907,102.08,83.964    C-1237.784-51.204-1200.719-72.353-1192.603-121.937L-1192.603-121.937z" fill="#FDB7CA" fill-rule="evenodd" stroke="#6C6CAA" stroke-linecap="round" stroke-linejoin="round" stroke-miterlimit="10" stroke-width="20.1764"/>
<path clip-rule="evenodd" d="    M-1456.261-360.109h182.269c6.888,0,12.546,5.658,12.546,12.574l0,0c0,6.888-5.658,12.546-12.546,12.546h-182.269    c-6.916,0-12.545-5.658-12.545-12.546l0,0C-1468.806-354.451-1463.177-360.109-1456.261-360.109L-1456.261-360.109z" fill="#FDB7CA" fill-rule="evenodd" stroke="#6C6CAA" stroke-linecap="round" stroke-linejoin="round" stroke-miterlimit="10" stroke-width="20.1764"/>
<path d="    M-1494.726-299.351c-5.173-14.861-0.286-27.578,24.805-35.98l4.315-3.858" fill="none" stroke="#6C6CAA" stroke-linecap="round" stroke-linejoin="round" stroke-miterlimit="10" stroke-width="20.1764"/>
<line fill="none" stroke="#6C6CAA" stroke-linecap="round" stroke-linejoin="round" stroke-miterlimit="10" stroke-width="20.1764" x1="-1189.345" x2="-1220.952" y1="-438.671" y2="-438.671"/>
</g>
<g>
<path d="    M-1043.131-213.329c19.118-10.174,35.351-10.831,47.667,1.686c18.375,18.405,42.324,22.491,76.587,0    c21.091-12.031,51.012-16.347,69.816,0c28.663,22.463,51.039,22.949,80.018,0c22.262-16.918,47.81-13.432,68.071,3.401    c28.378,18.547,56.756,18.376,85.133-1.687c6.088-8.773,21.119-7.116,40.838,0" fill="none" stroke="#6C6CAA" stroke-linecap="round" stroke-linejoin="round" stroke-miterlimit="10" stroke-width="20.1764"/>
<path d="    M-959.713-163.974c40.294-5.858,76.846-38.695,114.911-3.4c20.434,11.517,45.639,12.603,77.445-0.857    c30.436-14.946,56.955-17.09,78.303-2.544c18.919,14.89,46.354,14.061,69.815,1.715" fill="none" stroke="#6C6CAA" stroke-linecap="round" stroke-linejoin="round" stroke-miterlimit="10" stroke-width="20.1764"/>
<path d="    M-902.7-139.282c17.461-7.345,34.064-8.23,47.668,2.543c24.862,11.975,50.354,16.147,77.474,0.857    c20.062-5.572,37.494-9.717,61.271-0.857" fill="none" stroke="#6C6CAA" stroke-linecap="round" stroke-linejoin="round" stroke-miterlimit="10" stroke-width="20.1764"/>
<path clip-rule="evenodd" d="M-719.089-315.154c-20.318-22.434-49.668-36.495-82.304-36.495    c-58.499,0-106.423,45.183-110.767,102.568c-0.229,2.973-1.543,8.145,1.086,8.145l216.133-0.313    C-700.742-278.402-704.942-296.178-719.089-315.154L-719.089-315.154z" fill="#F5D8B3" fill-rule="evenodd"/>
<line fill="none" stroke="#6C6CAA" stroke-linecap="round" stroke-linejoin="round" stroke-miterlimit="10" stroke-width="20.1764" x1="-807.365" x2="-807.365" y1="-438.898" y2="-386.972"/>
<line fill="none" stroke="#6C6CAA" stroke-linecap="round" stroke-linejoin="round" stroke-miterlimit="10" stroke-width="20.1764" x1="-674.564" x2="-712.888" y1="-381.027" y2="-343.561"/>
<line fill="none" stroke="#6C6CAA" stroke-linecap="round" stroke-linejoin="round" stroke-miterlimit="10" stroke-width="20.1764" x1="-742.665" x2="-755.439" y1="-394.63" y2="-376.769"/>
<line fill="none" stroke="#6C6CAA" stroke-linecap="round" stroke-linejoin="round" stroke-miterlimit="10" stroke-width="20.1764" x1="-872.036" x2="-860.12" y1="-395.488" y2="-376.541"/>
<line fill="none" stroke="#6C6CAA" stroke-linecap="round" stroke-linejoin="round" stroke-miterlimit="10" stroke-width="20.1764" x1="-955.454" x2="-933.335" y1="-310.381" y2="-297.607"/>
<line fill="none" stroke="#6C6CAA" stroke-linecap="round" stroke-linejoin="round" stroke-miterlimit="10" stroke-width="20.1764" x1="-997.178" x2="-940.995" y1="-248.223" y2="-248.223"/>
<line fill="none" stroke="#6C6CAA" stroke-linecap="round" stroke-linejoin="round" stroke-miterlimit="10" stroke-width="20.1764" x1="-670.735" x2="-653.074" y1="-303.979" y2="-307.609"/>
<path clip-rule="evenodd" d="    M-1018.897-346.962h119.169c26.377-52.784-60.214-63.444-68.102-28.95C-998.207-395.631-1029.957-377.483-1018.897-346.962    L-1018.897-346.962z" fill="#DCF2FF" fill-rule="evenodd" stroke="#6C6CAA" stroke-linecap="round" stroke-linejoin="round" stroke-miterlimit="10" stroke-width="20.1764"/>
<path clip-rule="evenodd" d="    M-772.758-251.709h118.312c3.287-26.55-13.889-32.208-49.354-28.093C-748.752-307.238-779.73-282.746-772.758-251.709    L-772.758-251.709z" fill="#DCF2FF" fill-rule="evenodd" stroke="#6C6CAA" stroke-linecap="round" stroke-linejoin="round" stroke-miterlimit="10" stroke-width="20.1764"/>
<path d="    M-719.089-315.154c-20.318-22.434-49.668-36.495-82.304-36.495c-58.499,0-106.423,45.183-110.767,102.568" fill="none" stroke="#6C6CAA" stroke-linecap="round" stroke-linejoin="round" stroke-miterlimit="10" stroke-width="20.1764"/>
</g>
<g>
<polygon fill="none" points="    -380.931,-385.197 -398.392,-349.646 -359.212,-329.412   " stroke="#6C6CAA" stroke-linecap="round" stroke-linejoin="round" stroke-miterlimit="10" stroke-width="20.1478"/>
<path clip-rule="evenodd" d="    M-180.03-327.897C-100.384-316.58-45-291.574-45-262.51c0,39.667-103.138,71.817-230.365,71.817    c-127.199,0-230.336-32.15-230.336-71.817c0-21.063,29.092-40.01,75.444-53.156l54.299,12.174l16.746-25.921    c-8.916,20.063-14.289,43.325-14.975,68.274c65.614,38.952,135.658,33.322,208.503,0    C-166.342-285.458-171.485-308.207-180.03-327.897L-180.03-327.897z" fill="#F9E5D3" fill-rule="evenodd" stroke="#6C6CAA" stroke-linecap="round" stroke-linejoin="round" stroke-miterlimit="10" stroke-width="20.1478"/>
<path clip-rule="evenodd" d="    M-269.936-398c56.298,0,102.165,60.786,104.252,136.862c-72.845,33.322-142.889,38.952-208.503,0    C-372.101-337.214-326.233-398-269.936-398L-269.936-398z" fill="#F9E5D3" fill-rule="evenodd" stroke="#6C6CAA" stroke-linecap="round" stroke-linejoin="round" stroke-miterlimit="10" stroke-width="20.1478"/>
<polygon fill="none" points="    -416.624,-359.048 -430.257,-315.666 -375.958,-303.491 -359.212,-329.412   " stroke="#6C6CAA" stroke-linecap="round" stroke-linejoin="round" stroke-miterlimit="10" stroke-width="20.1478"/>
<path d="    M-217.838-280.886c-57.527,20.834-104.595,13.632-150.062-13.403" fill="none" stroke="#6C6CAA" stroke-linecap="round" stroke-linejoin="round" stroke-miterlimit="10" stroke-width="20.1478"/>
<line fill="none" stroke="#6C6CAA" stroke-linecap="round" stroke-linejoin="round" stroke-miterlimit="10" stroke-width="20.1478" x1="-191.004" x2="-191.004" y1="-289.717" y2="-289.945"/>
</g>
<g>
<path clip-rule="evenodd" d="    M106.418-145.728c6.887-85.021,93.277-120.544,171.58-113.514l-0.486,0.457c-0.743,0.687-1.485,1.372-2.229,2.058l-0.486,0.457    c-0.8,0.715-1.601,1.43-2.4,2.173l-0.457,0.428c-0.801,0.715-1.601,1.43-2.4,2.144l-0.458,0.429    c-0.886,0.771-1.771,1.572-2.657,2.372l-0.086,0.086l-0.028,0.028l-0.086,0.058c-0.914,0.8-1.829,1.629-2.771,2.458l-0.258,0.229    c-1,0.886-1.972,1.743-2.972,2.629h-0.028l0,0c-1.029,0.914-2.087,1.857-3.173,2.772l33.208,19.348    c1.057-1.258,2.114-2.516,3.172-3.744l0.2-0.229l0.085-0.086c1.029-1.229,2.029-2.4,3.029-3.601l0.343-0.4    c0.887-1.028,1.744-2.058,2.63-3.087l0.8-0.972c0.715-0.856,1.429-1.686,2.115-2.543l1.2-1.4c0.543-0.686,1.086-1.343,1.657-2    c0.515-0.629,1.058-1.286,1.571-1.915l0.943-1.144l0.372-0.457c0.657-0.771,1.285-1.543,1.914-2.314l0.372-0.458l0.171-0.199    c0.687-0.857,1.372-1.715,2.058-2.544l0.343-0.457l0.372-0.429c0.714-0.915,1.429-1.801,2.144-2.687l0.343-0.429    c52.926,15.175,94.049,51.984,90.22,107.855c-36.608,26.892-61.07,30.578-95.964,8.459    c-47.382-34.694-85.677-12.261-122.484-0.058C157.343-125.837,132.537-119.606,106.418-145.728L106.418-145.728z" fill="#B0F0A8" fill-rule="evenodd" stroke="#6C6CAA" stroke-linecap="round" stroke-linejoin="round" stroke-miterlimit="10" stroke-width="20.1764"/>
<path clip-rule="evenodd" d="    M397.796-452.746c20.719,0,38.693,11.717,47.695,28.893H350.07C359.072-441.029,377.076-452.746,397.796-452.746L397.796-452.746z    " fill="#B0F0A8" fill-rule="evenodd" stroke="#6C6CAA" stroke-linecap="round" stroke-linejoin="round" stroke-miterlimit="10" stroke-width="20.1764"/>
<path clip-rule="evenodd" d="    M314.948-476.752c14.403,7.773,22.491,22.691,22.291,37.981l-66.3-35.866C283.628-483.182,300.546-484.554,314.948-476.752    L314.948-476.752z" fill="#B0F0A8" fill-rule="evenodd" stroke="#6C6CAA" stroke-linecap="round" stroke-linejoin="round" stroke-miterlimit="10" stroke-width="20.1764"/>
<path clip-rule="evenodd" d="    M370.104-476.752c-14.403,7.773-22.49,22.691-22.29,37.981l66.3-35.866C401.425-483.182,384.507-484.554,370.104-476.752    L370.104-476.752z" fill="#B0F0A8" fill-rule="evenodd" stroke="#6C6CAA" stroke-linecap="round" stroke-linejoin="round" stroke-miterlimit="10" stroke-width="20.1764"/>
<path clip-rule="evenodd" d="    M295.287-452.746c20.719,0,38.723,11.717,47.696,28.893h-95.392C256.564-441.029,274.568-452.746,295.287-452.746L295.287-452.746    z" fill="#B0F0A8" fill-rule="evenodd" stroke="#6C6CAA" stroke-linecap="round" stroke-linejoin="round" stroke-miterlimit="10" stroke-width="20.1764"/>
<path clip-rule="evenodd" d="    M295.116-406.735c12.06-11.66,29.092-14.975,43.98-10.06l-55.44,53.67C279.227-378.156,283.085-395.075,295.116-406.735    L295.116-406.735z" fill="#B0F0A8" fill-rule="evenodd" stroke="#6C6CAA" stroke-linecap="round" stroke-linejoin="round" stroke-miterlimit="10" stroke-width="20.1764"/>
<path clip-rule="evenodd" d="    M402.739-406.735c-12.06-11.66-29.092-14.975-43.98-10.06l55.44,53.67C418.629-378.156,414.771-395.075,402.739-406.735    L402.739-406.735z" fill="#B0F0A8" fill-rule="evenodd" stroke="#6C6CAA" stroke-linecap="round" stroke-linejoin="round" stroke-miterlimit="10" stroke-width="20.1764"/>
<path clip-rule="evenodd" d="    M257.021-240.465c68.358-59.615,88.819-87.822,91.335-190.133c20.032,107.055,15.26,123.602-58.127,209.48L257.021-240.465z" fill="#F5D8B3" fill-rule="evenodd" stroke="#6C6CAA" stroke-linecap="round" stroke-linejoin="round" stroke-miterlimit="10" stroke-width="20.1764"/>
<path d="    M26-146.328c26.977-5.372,36.493-5.029,55.897,18.319c18.861,23.863,43.152,33.408,74.188,34.094    c39.122,0.114,54.525-26.949,92.963-27.121c39.951,1.601,51.383,23.635,90.477,32.037c29.007,7.23,55.498-14.146,89.963-34.866    c34.922-20.891,41.98-17.947,60.585-4.087" fill="none" stroke="#6C6CAA" stroke-linecap="round" stroke-linejoin="round" stroke-miterlimit="10" stroke-width="20.1764"/>
<path d="    M80.926-83.598c24.834,21.434,49.84,27.235,72.873,28.178c39.952,0.715,59.984-30.836,93.535-28.407    c55.498,11.432,84.476,57.071,150.404,16.204" fill="none" stroke="#6C6CAA" stroke-linecap="round" stroke-linejoin="round" stroke-miterlimit="10" stroke-width="20.1764"/>
<line fill="none" stroke="#6C6CAA" stroke-linecap="round" stroke-linejoin="round" stroke-miterlimit="10" stroke-width="20.1764" x1="433.832" x2="461.181" y1="-87.284" y2="-102.574"/>
<path clip-rule="evenodd" d="    M65.723-420.481c-33.551-10.688-14.889-58.271,21.233-37.667c-11.146-44.64,67.129-48.641,55.955,1.086    c28.006-31.951,68.358,16.861,32.292,36.581H65.723z" fill="#DCF2FF" fill-rule="evenodd" stroke="#6C6CAA" stroke-linecap="round" stroke-linejoin="round" stroke-miterlimit="10" stroke-width="20.1764"/>
<path clip-rule="evenodd" d="    M155.229-352.75c-29.521-11.231,10.287-67.216,48.953-23.206c20.461-23.292,46.067,14.089,20.49,23.206H155.229z" fill="#DCF2FF" fill-rule="evenodd" stroke="#6C6CAA" stroke-linecap="round" stroke-linejoin="round" stroke-miterlimit="10" stroke-width="20.1764"/>
<line fill="none" stroke="#6C6CAA" stroke-linecap="round" stroke-linejoin="round" stroke-miterlimit="10" stroke-width="20.1764" x1="60.893" x2="60.893" y1="-103.889" y2="-104.089"/>
</g>
<g>
<polygon clip-rule="evenodd" fill="#F9E5D3" fill-rule="evenodd" points="    744.108,-345.125 846.273,-345.125 851.046,-236.383 833.5,-236.383 833.5,-207.576 806.322,-207.576 806.322,-236.069     776.687,-236.04 776.516,-207.462 751.31,-207.233 751.31,-236.383 732.534,-236.583   " stroke="#6C6CAA" stroke-linecap="round" stroke-linejoin="round" stroke-miterlimit="10" stroke-width="20.1478"/>
<polygon clip-rule="evenodd" fill="#F9E5D3" fill-rule="evenodd" points="    583.645,-72.657 592.161,-228.524 620.31,-228.524 625.54,-304.514 696.298,-304.514 696.298,-232.468 721.161,-231.153     721.732,-72.571   " stroke="#6C6CAA" stroke-linecap="round" stroke-linejoin="round" stroke-miterlimit="10" stroke-width="20.1478"/>
<polygon clip-rule="evenodd" fill="#F9E5D3" fill-rule="evenodd" points="    996.621,-71.485 991.02,-229.839 968.729,-231.153 968.729,-301.885 894.084,-301.885 894.084,-233.782 866.564,-232.468     865.249,-71.343   " stroke="#6C6CAA" stroke-linecap="round" stroke-linejoin="round" stroke-miterlimit="10" stroke-width="20.1478"/>
<polygon clip-rule="evenodd" fill="#F9E5D3" fill-rule="evenodd" points="    751.31,-236.383 721.161,-236.727 721.732,-72.571 865.249,-71.343 866.25,-236.383 833.5,-236.383 833.5,-207.576     806.322,-207.576 806.322,-236.069 776.687,-236.04 776.516,-207.462 751.31,-207.233   " stroke="#6C6CAA" stroke-linecap="round" stroke-linejoin="round" stroke-miterlimit="10" stroke-width="20.1478"/>
<polygon clip-rule="evenodd" fill="#F9E5D3" fill-rule="evenodd" points="    765.228,-403.882 825.47,-403.882 831.699,-345.125 758.026,-345.125   " stroke="#6C6CAA" stroke-linecap="round" stroke-linejoin="round" stroke-miterlimit="10" stroke-width="20.1478"/>
<line fill="none" stroke="#6C6CAA" stroke-linecap="round" stroke-linejoin="round" stroke-miterlimit="10" stroke-width="20.1478" x1="792.063" x2="792.063" y1="-470.698" y2="-403.882"/>
<polygon clip-rule="evenodd" fill="#B0F0A8" fill-rule="evenodd" points="    839.559,-450.722 792.063,-427.487 792.063,-470.698   " stroke="#6C6CAA" stroke-linecap="round" stroke-linejoin="round" stroke-miterlimit="10" stroke-width="20.1478"/>
<line fill="none" stroke="#6C6CAA" stroke-linecap="round" stroke-linejoin="round" stroke-miterlimit="10" stroke-width="20.1478" x1="656.661" x2="656.661" y1="-370.331" y2="-304.514"/>
<polygon clip-rule="evenodd" fill="#B0F0A8" fill-rule="evenodd" points="    698.585,-349.697 656.661,-328.406 656.661,-370.331   " stroke="#6C6CAA" stroke-linecap="round" stroke-linejoin="round" stroke-miterlimit="10" stroke-width="20.1478"/>
<line fill="none" stroke="#6C6CAA" stroke-linecap="round" stroke-linejoin="round" stroke-miterlimit="10" stroke-width="20.1478" x1="927.806" x2="927.806" y1="-371.959" y2="-301.885"/>
<polygon clip-rule="evenodd" fill="#B0F0A8" fill-rule="evenodd" points="    971.701,-351.012 927.806,-328.749 927.806,-371.959   " stroke="#6C6CAA" stroke-linecap="round" stroke-linejoin="round" stroke-miterlimit="10" stroke-width="20.1478"/>
<path clip-rule="evenodd" d="    M793.377-283.709c8.659,0,15.718-7.059,15.718-15.718s-7.059-15.718-15.718-15.718s-15.718,7.059-15.718,15.718    S784.718-283.709,793.377-283.709L793.377-283.709z" fill="#DBBEB9" fill-rule="evenodd" stroke="#6C6CAA" stroke-linecap="round" stroke-linejoin="round" stroke-miterlimit="10" stroke-width="20.1478"/>
<path clip-rule="evenodd" d="    M656.946-164.623c8.66,0,15.719-7.059,15.719-15.718c0-8.631-7.059-15.718-15.719-15.718c-8.658,0-15.717,7.087-15.717,15.718    C641.229-171.682,648.288-164.623,656.946-164.623L656.946-164.623z" fill="#DBBEB9" fill-rule="evenodd" stroke="#6C6CAA" stroke-linecap="round" stroke-linejoin="round" stroke-miterlimit="10" stroke-width="20.1478"/>
<path clip-rule="evenodd" d="    M930.949-162.68c8.659,0,15.718-7.059,15.718-15.718s-7.059-15.718-15.718-15.718c-8.658,0-15.718,7.059-15.718,15.718    S922.291-162.68,930.949-162.68L930.949-162.68z" fill="#DBBEB9" fill-rule="evenodd" stroke="#6C6CAA" stroke-linecap="round" stroke-linejoin="round" stroke-miterlimit="10" stroke-width="20.1478"/>
<path clip-rule="evenodd" d="    M786.118-153.42h12.231c13.488,0,24.49,11.003,24.49,24.491v57.157h-61.213v-57.157C761.627-142.417,772.63-153.42,786.118-153.42    L786.118-153.42z" fill="#DBBEB9" fill-rule="evenodd" stroke="#6C6CAA" stroke-linecap="round" stroke-linejoin="round" stroke-miterlimit="10" stroke-width="20.1478"/>
<line fill="none" stroke="#6C6CAA" stroke-linecap="round" stroke-linejoin="round" stroke-miterlimit="10" stroke-width="20.1478" x1="640.629" x2="620.31" y1="-228.524" y2="-228.524"/>
<line fill="none" stroke="#6C6CAA" stroke-linecap="round" stroke-linejoin="round" stroke-miterlimit="10" stroke-width="20.1478" x1="952.04" x2="979.875" y1="-230.496" y2="-230.496"/>
<line fill="none" stroke="#6C6CAA" stroke-linecap="round" stroke-linejoin="round" stroke-miterlimit="10" stroke-width="20.1478" x1="926.034" x2="926.034" y1="-229.667" y2="-229.867"/>
<line fill="none" stroke="#6C6CAA" stroke-linecap="round" stroke-linejoin="round" stroke-miterlimit="10" stroke-width="20.1478" x1="664.663" x2="664.663" y1="-228.839" y2="-229.01"/>
<line fill="none" stroke="#6C6CAA" stroke-linecap="round" stroke-linejoin="round" stroke-miterlimit="10" stroke-width="20.1478" x1="550.238" x2="1029" y1="-71" y2="-71"/>
</g>
<g>
<path clip-rule="evenodd" d="    M780.983,84.542h8.46c6.973,0,12.688,5.716,12.688,12.689v13.804l-16.918-3.916l-16.947,3.772V97.231    C768.267,90.258,773.982,84.542,780.983,84.542L780.983,84.542z" fill="#F4B1C3" fill-rule="evenodd" stroke="#6C6CAA" stroke-linecap="round" stroke-linejoin="round" stroke-miterlimit="10" stroke-width="20.1478"/>
<path clip-rule="evenodd" d="    M646.812,137.87l138.402-30.75l133.915,31.093c12.06,3.487,22.033,7.23,26.806,19.776l31.178,163.612l31.521,57.157    c19.262,34.923,12.488,23.806-27.12,16.918c-127.257-22.091-254.513-24.377-381.77-1.571    c-40.466,7.259-52.726,21.319-32.406-14.575l34.436-60.758l28.092-160.783C631.037,147.357,637.038,140.985,646.812,137.87    L646.812,137.87z" fill="#DCF2FF" fill-rule="evenodd" stroke="#6C6CAA" stroke-linecap="round" stroke-linejoin="round" stroke-miterlimit="10" stroke-width="20.1478"/>
<path d="    M601.773,318.771c131.086-30.865,255.542-26.521,375.339,2.829" fill="none" stroke="#6C6CAA" stroke-linecap="round" stroke-linejoin="round" stroke-miterlimit="10" stroke-width="20.1478"/>
<path clip-rule="evenodd" d="    M780.069,196.713c-72.273-70.846-101.594,45.84-9.174,20.833c-52.84,50.841,16.519,61.215,22.52,12.432    c50.697,69.074,72.33-41.182,9.917-26.006C868.089,158.274,765.237,127.639,780.069,196.713L780.069,196.713z" fill="#F9E5D3" fill-rule="evenodd" stroke="#6C6CAA" stroke-linecap="round" stroke-linejoin="round" stroke-miterlimit="10" stroke-width="20.1478"/>
</g>
<g>
<path clip-rule="evenodd" d="    M56.305,274.756c2.858-30.036,16.49-44.497,38.608-46.668h117.455c26.177,8.316,32.807,29.264,22.52,61.158    c-23.463,113.456-178.153,110.941-178.583,50.67V274.756z" fill="#929FC5" fill-rule="evenodd" stroke="#6C6CAA" stroke-linecap="round" stroke-linejoin="round" stroke-miterlimit="10" stroke-width="20.1764"/>
<path clip-rule="evenodd" d="    M461.308,274.756c-2.829-30.036-16.46-44.497-38.608-46.668H305.273c-26.205,8.316-32.807,29.264-22.547,61.158    c23.462,113.456,178.182,110.941,178.581,50.67V274.756z" fill="#929FC5" fill-rule="evenodd" stroke="#6C6CAA" stroke-linecap="round" stroke-linejoin="round" stroke-miterlimit="10" stroke-width="20.1764"/>
<polyline fill="none" points="    77.624,137.608 26.156,187.478 26.156,281.586 56.305,281.586   " stroke="#6C6CAA" stroke-linecap="round" stroke-linejoin="round" stroke-miterlimit="10" stroke-width="20.1764"/>
<polyline fill="none" points="    439.503,137.608 491,187.478 491,281.586 460.822,281.586   " stroke="#6C6CAA" stroke-linecap="round" stroke-linejoin="round" stroke-miterlimit="10" stroke-width="20.1764"/>
<line fill="none" stroke="#6C6CAA" stroke-linecap="round" stroke-linejoin="round" stroke-miterlimit="10" stroke-width="20.1764" x1="212.368" x2="305.273" y1="228.088" y2="228.088"/>
<line fill="none" stroke="#6C6CAA" stroke-linecap="round" stroke-linejoin="round" stroke-miterlimit="10" stroke-width="20.1764" x1="239.03" x2="278.611" y1="271.298" y2="271.298"/>
<line fill="none" stroke="#6C6CAA" stroke-linecap="round" stroke-linejoin="round" stroke-miterlimit="10" stroke-width="20.1764" x1="149.211" x2="92.112" y1="263.096" y2="329.055"/>
<line fill="none" stroke="#6C6CAA" stroke-linecap="round" stroke-linejoin="round" stroke-miterlimit="10" stroke-width="20.1764" x1="178.018" x2="155.813" y1="284.988" y2="311.965"/>
<line fill="none" stroke="#6C6CAA" stroke-linecap="round" stroke-linejoin="round" stroke-miterlimit="10" stroke-width="20.1764" x1="362.887" x2="419.984" y1="263.096" y2="329.055"/>
<line fill="none" stroke="#6C6CAA" stroke-linecap="round" stroke-linejoin="round" stroke-miterlimit="10" stroke-width="20.1764" x1="334.08" x2="356.313" y1="284.988" y2="311.965"/>
</g>
<g>
<path clip-rule="evenodd" d="    M-263.203,30.8c113.939,4.944,205.873,94.88,213.904,208.022c-1.43-0.457-2.943-0.686-4.486-0.686h-32.408h-0.057    C-94.424,146.2-168.896,73.325-261.574,67.695V37.773C-261.574,35.258-262.174,32.886-263.203,30.8L-263.203,30.8z     M-49.127,268.802c-6.916,113.742-98.508,204.593-212.533,210.309c0.057-0.6,0.086-1.2,0.086-1.8v-32.408    c0-0.886-0.057-1.772-0.199-2.63c93.506-5.572,168.578-79.647,175.723-172.756h32.266    C-52.186,269.517-50.613,269.287-49.127,268.802L-49.127,268.802z M-292.953,68.381c-88.791,9.316-159.121,80.591-167.065,169.785    c-0.286,0-0.6-0.028-0.886-0.028h-32.407c-1.257,0-2.458,0.143-3.629,0.428c7.945-110.17,95.478-198.306,205.388-207.251    c-0.887,1.972-1.4,4.173-1.4,6.459V68.381z M-460.189,269.517c6.916,90.394,77.875,162.868,167.58,172.099    c-0.229,1.058-0.343,2.172-0.343,3.287v32.408c0,0.399,0.028,0.8,0.057,1.229c-110.053-9.631-197.329-98.653-204.187-209.48    c1.2,0.314,2.458,0.458,3.772,0.458h32.407C-460.675,269.517-460.446,269.517-460.189,269.517L-460.189,269.517z" fill="#F5D8B3" fill-rule="evenodd" stroke="#6C6CAA" stroke-linecap="round" stroke-linejoin="round" stroke-miterlimit="10" stroke-width="20.1764"/>
<path clip-rule="evenodd" d="    M-261.574,68.724c92.105,5.63,166.15,78.048,174.324,169.471c-8.145,0.543-14.633,7.373-14.633,15.632l0,0    c0,8.345,6.574,15.232,14.832,15.661c-7.145,92.623-81.875,166.298-174.953,171.785c-1.629-6.887-7.857-12.06-15.259-12.06l0,0    c-7.145,0-13.203,4.829-15.09,11.402c-89.305-9.116-159.949-81.248-166.836-171.185c7.83-0.857,13.975-7.545,13.975-15.604l0,0    c0-7.974-6.059-14.604-13.775-15.575c7.859-88.679,77.789-159.525,166.037-168.842v0.771c0,8.631,7.059,15.69,15.689,15.69l0,0    c8.63,0,15.689-7.059,15.689-15.69V68.724z M-273.119,170.377c46.725,0,84.59,37.895,84.59,84.592    c0,46.726-37.865,84.621-84.59,84.621c-46.725,0-84.59-37.896-84.59-84.621C-357.709,208.272-319.844,170.377-273.119,170.377    L-273.119,170.377z" fill="#FDB7CA" fill-rule="evenodd" stroke="#6C6CAA" stroke-linecap="round" stroke-linejoin="round" stroke-miterlimit="10" stroke-width="20.1764"/>
<line fill="none" stroke="#6C6CAA" stroke-linecap="round" stroke-linejoin="round" stroke-miterlimit="10" stroke-width="20.1764" x1="-128.174" x2="-213.307" y1="137.426" y2="195.155"/>
<line fill="none" stroke="#6C6CAA" stroke-linecap="round" stroke-linejoin="round" stroke-miterlimit="10" stroke-width="20.1764" x1="-420.552" x2="-335.448" y1="137.426" y2="195.155"/>
<line fill="none" stroke="#6C6CAA" stroke-linecap="round" stroke-linejoin="round" stroke-miterlimit="10" stroke-width="20.1764" x1="-420.552" x2="-335.448" y1="372.827" y2="315.07"/>
<line fill="none" stroke="#6C6CAA" stroke-linecap="round" stroke-linejoin="round" stroke-miterlimit="10" stroke-width="20.1764" x1="-128.174" x2="-213.307" y1="372.827" y2="315.07"/>
<path clip-rule="evenodd" d="    M-277.263,429.213L-277.263,429.213c8.63,0,15.689,7.059,15.689,15.689v32.408c0,8.63-7.059,15.689-15.689,15.689l0,0    c-8.631,0-15.689-7.06-15.689-15.689v-32.408C-292.953,436.271-285.894,429.213-277.263,429.213L-277.263,429.213z" fill="#F9E5D3" fill-rule="evenodd" stroke="#6C6CAA" stroke-linecap="round" stroke-linejoin="round" stroke-miterlimit="10" stroke-width="20.1764"/>
<path clip-rule="evenodd" d="    M-277.263,22.084L-277.263,22.084c8.63,0,15.689,7.059,15.689,15.689v32.408c0,8.631-7.059,15.69-15.689,15.69l0,0    c-8.631,0-15.689-7.059-15.689-15.69V37.773C-292.953,29.143-285.894,22.084-277.263,22.084L-277.263,22.084z" fill="#F9E5D3" fill-rule="evenodd" stroke="#6C6CAA" stroke-linecap="round" stroke-linejoin="round" stroke-miterlimit="10" stroke-width="20.1764"/>
<path clip-rule="evenodd" d="    M-509,253.827L-509,253.827c0-8.631,7.059-15.689,15.689-15.689h32.407c8.63,0,15.689,7.059,15.689,15.689l0,0    c0,8.63-7.059,15.69-15.689,15.69h-32.407C-501.941,269.517-509,262.457-509,253.827L-509,253.827z" fill="#F9E5D3" fill-rule="evenodd" stroke="#6C6CAA" stroke-linecap="round" stroke-linejoin="round" stroke-miterlimit="10" stroke-width="20.1764"/>
<path clip-rule="evenodd" d="    M-101.883,253.827L-101.883,253.827c0-8.631,7.059-15.689,15.689-15.689h32.408c8.629,0,15.688,7.059,15.688,15.689l0,0    c0,8.63-7.059,15.69-15.688,15.69h-32.408C-94.824,269.517-101.883,262.457-101.883,253.827L-101.883,253.827z" fill="#F9E5D3" fill-rule="evenodd" stroke="#6C6CAA" stroke-linecap="round" stroke-linejoin="round" stroke-miterlimit="10" stroke-width="20.1764"/>
</g>
<g>
<path clip-rule="evenodd" d="    M-826.467,484c-8.316-51.299-34.15-85.05-78.56-100.225V253.743c-61.985-8.659-60.757-108.141-10.831-121.916l2.457,0.028V31.231    h27.264c8.116,93.994-29.578,144.064,69.873,156.267c100.735-6.744,79.702-80.706,81.132-156.267h27.263v103.311h0.601    c51.325,24.806,45.724,105.34-1.372,119.201l-1.343,127.317c-49.354,16.118-78.446,50.669-88.048,102.939H-826.467z" fill="#FDB7CA" fill-rule="evenodd" stroke="#6C6CAA" stroke-linecap="round" stroke-linejoin="round" stroke-miterlimit="10" stroke-width="20.1764"/>
<line fill="none" stroke="#6C6CAA" stroke-linecap="round" stroke-linejoin="round" stroke-miterlimit="10" stroke-width="20.1764" x1="-878.793" x2="-908.256" y1="253.4" y2="253.4"/>
<line fill="none" stroke="#6C6CAA" stroke-linecap="round" stroke-linejoin="round" stroke-miterlimit="10" stroke-width="20.1764" x1="-709.841" x2="-739.305" y1="254.744" y2="254.744"/>
<line fill="none" stroke="#6C6CAA" stroke-linecap="round" stroke-linejoin="round" stroke-miterlimit="10" stroke-width="20.1764" x1="-854.416" x2="-854.416" y1="255.144" y2="254.915"/>
</g>
<g>
<path clip-rule="evenodd" d="    M-1340.072,488c24.891-34.666,53.097-43.611,75.302-60.673c46.582-35.809,79.646-65.559,95.05-122.944l25.462,17.233    l-8.43-106.198l-64.357,66.245l20.833,17.062c-16.261,31.551-82.161,119.743-113.567,58.672l-9.859-175.015h59.07v-35.98h-61.1    l-2.114-37.752c16.889-5.315,29.12-21.091,29.12-39.724c0-23.005-18.633-41.639-41.638-41.639s-41.637,18.633-41.637,41.639    c0,15.861,8.858,29.636,21.89,36.667l-2.028,40.81h-55.813v35.98h54.04l-8.602,173.128    c-41.466,59.301-84.533-25.32-114.511-59.644l19.861-25.549l-62.471-49.212l-6.43,105.997l20.633-21.776    c20.689,54.585,62.1,95.538,99.393,124.059C-1390.855,443.846-1364.048,455.22-1340.072,488L-1340.072,488z" fill="#929FC5" fill-rule="evenodd" stroke="#6C6CAA" stroke-linecap="round" stroke-linejoin="round" stroke-miterlimit="10" stroke-width="20.1478"/>
<line fill="none" stroke="#6C6CAA" stroke-linecap="round" stroke-linejoin="round" stroke-miterlimit="10" stroke-width="20.1478" x1="-1339.129" x2="-1339.129" y1="425.527" y2="475.683"/>
<line fill="none" stroke="#6C6CAA" stroke-linecap="round" stroke-linejoin="round" stroke-miterlimit="10" stroke-width="20.1478" x1="-1339.129" x2="-1339.129" y1="388.632" y2="388.347"/>
<line fill="none" stroke="#6C6CAA" stroke-linecap="round" stroke-linejoin="round" stroke-miterlimit="10" stroke-width="20.1478" x1="-1337.214" x2="-1337.214" y1="66.839" y2="66.553"/>
</g>
<g>
<path clip-rule="evenodd" d="    M806.926,759.935c31.636,6.087,54.813,25.921,54.813,49.44c0,8.603-3.059,16.747-8.573,23.863    c-7.802,10.031-15.032,26.378-3.744,37.238C866.11,886.48,884,910.801,884,937.807c0,46.783-40.266,85.021-91.22,87.993v0.2    c-1.058,0-2.115-0.028-3.173-0.057c-1.085,0.028-2.144,0.057-3.2,0.057v-0.2c-50.926-2.972-91.221-41.21-91.221-87.993    c0-27.006,17.891-51.326,34.58-67.33c11.287-10.86,4.058-27.207-3.715-37.238c-5.516-7.116-8.603-15.261-8.603-23.863    c0-24.92,26.006-45.668,60.499-50.383v114.142c4.144-1.943,8.773-3.058,13.688-3.058c5.516,0,10.745,1.4,15.289,3.858V759.935z" fill="#DBBEB9" fill-rule="evenodd" stroke="#6C6CAA" stroke-linecap="round" stroke-linejoin="round" stroke-miterlimit="10" stroke-width="20.1764"/>
<path clip-rule="evenodd" d="    M777.948,619.5h28.978v254.435c-4.544-2.458-9.773-3.858-15.289-3.858c-4.915,0-9.545,1.114-13.688,3.058V619.5z" fill="#DBBEB9" fill-rule="evenodd" stroke="#6C6CAA" stroke-linecap="round" stroke-linejoin="round" stroke-miterlimit="10" stroke-width="20.1764"/>
<path clip-rule="evenodd" d="    M791.637,934.492c17.719,0,32.179-14.461,32.179-32.208c0-17.719-14.46-32.208-32.179-32.208    c-17.747,0-32.207,14.489-32.207,32.208C759.43,920.031,773.89,934.492,791.637,934.492L791.637,934.492z" fill="#DBBEB9" fill-rule="evenodd" stroke="#6C6CAA" stroke-linecap="round" stroke-linejoin="round" stroke-miterlimit="10" stroke-width="20.1764"/>
<line fill="none" stroke="#6C6CAA" stroke-linecap="round" stroke-linejoin="round" stroke-miterlimit="10" stroke-width="20.1764" x1="761.03" x2="825.444" y1="957.812" y2="957.812"/>
<path clip-rule="evenodd" d="    M780.349,554.57h26.577c5.744,0,10.46,4.715,10.46,10.46v41.867c0,5.744-4.716,10.46-10.46,10.46h-26.577    c-5.744,0-10.459-4.716-10.459-10.46V565.03C769.89,559.285,774.604,554.57,780.349,554.57L780.349,554.57z" fill="#DBBEB9" fill-rule="evenodd" stroke="#6C6CAA" stroke-linecap="round" stroke-linejoin="round" stroke-miterlimit="10" stroke-width="20.1764"/>
</g>
<g>
<path clip-rule="evenodd" d="    M288.473,878.879v110.342c0,18.318-15.004,33.322-33.351,33.322l0,0c-18.318,0-33.321-15.004-33.321-33.322V878.879H288.473z" fill="#F9E5D3" fill-rule="evenodd" stroke="#6C6CAA" stroke-linecap="round" stroke-linejoin="round" stroke-miterlimit="10" stroke-width="20.1764"/>
<path clip-rule="evenodd" d="    M255.951,558L255.951,558c60.527,0,110.024,49.498,110.024,109.999v191.276c0.514,14.403-7.059,20.747-22.091,19.604H166.389    c-15.976,0-21.119-5.001-20.433-18.776V667.999C145.956,607.498,195.452,558,255.951,558L255.951,558z" fill="#F4B1C3" fill-rule="evenodd" stroke="#6C6CAA" stroke-linecap="round" stroke-linejoin="round" stroke-miterlimit="10" stroke-width="20.1764"/>
<path clip-rule="evenodd" d="    M214.171,645.993L214.171,645.993c9.945,0,18.09,8.117,18.09,18.062v150.551c0,9.917-8.145,18.062-18.09,18.062l0,0    c-9.917,0-18.062-8.145-18.062-18.062V664.055C196.109,654.109,204.254,645.993,214.171,645.993L214.171,645.993z" fill="#F5D8B3" fill-rule="evenodd" stroke="#6C6CAA" stroke-linecap="round" stroke-linejoin="round" stroke-miterlimit="10" stroke-width="20.1764"/>
<path clip-rule="evenodd" d="    M297.761,645.993L297.761,645.993c9.916,0,18.061,8.117,18.061,18.062v150.551c0,9.917-8.145,18.062-18.061,18.062l0,0    c-9.945,0-18.09-8.145-18.09-18.062V664.055C279.671,654.109,287.815,645.993,297.761,645.993L297.761,645.993z" fill="#F5D8B3" fill-rule="evenodd" stroke="#6C6CAA" stroke-linecap="round" stroke-linejoin="round" stroke-miterlimit="10" stroke-width="20.1764"/>
<path d="    M188.422,620.729c0,0,15.003-41.667,65.843-34.18" fill="none" stroke="#6C6CAA" stroke-linecap="round" stroke-linejoin="round" stroke-miterlimit="10" stroke-width="20.1764"/>
<line fill="none" stroke="#6C6CAA" stroke-linecap="round" stroke-linejoin="round" stroke-miterlimit="10" stroke-width="20.1764" x1="286.815" x2="286.815" y1="597.181" y2="596.981"/>
</g>
<g>
<path clip-rule="evenodd" d="    M-299.071,772.053L-465.25,647.736c-9.802-7.345-11.917-21.263-4.658-30.979l0,0c7.23-9.688,21.205-11.603,31.036-4.23    l139.801,104.569V772.053z" fill="#F5D8B3" fill-rule="evenodd" stroke="#6C6CAA" stroke-linecap="round" stroke-linejoin="round" stroke-miterlimit="10" stroke-width="20.1478"/>
<path clip-rule="evenodd" d="    M-60.618,785.913v190.476c0,26.206-18.633,47.611-41.409,47.611h-354.563c-22.776,0-41.409-21.405-41.409-47.611V785.913h198.929    v42.039c-7.858,5.916-12.945,15.289-12.945,25.892c0,17.862,14.489,32.352,32.35,32.352c17.891,0,32.351-14.489,32.351-32.352    c0-10.603-5.059-19.976-12.917-25.892v-42.039H-60.618z" fill="#F5D8B3" fill-rule="evenodd" stroke="#6C6CAA" stroke-linecap="round" stroke-linejoin="round" stroke-miterlimit="10" stroke-width="20.1478"/>
<path clip-rule="evenodd" d="    M-279.667,551.027L-279.667,551.027c10.688,0,19.434,8.745,19.434,19.405v257.521c7.858,5.916,12.917,15.289,12.917,25.892    c0,17.862-14.46,32.352-32.351,32.352c-17.86,0-32.35-14.489-32.35-32.352c0-10.603,5.087-19.976,12.945-25.892V570.432    C-299.071,559.771-290.325,551.027-279.667,551.027L-279.667,551.027z" fill="#F9E5D3" fill-rule="evenodd" stroke="#6C6CAA" stroke-linecap="round" stroke-linejoin="round" stroke-miterlimit="10" stroke-width="20.1478"/>
<path clip-rule="evenodd" d="    M-255.146,740.616h189.298c10.746,0,19.519,9.888,19.519,21.977l0,0c0,12.117-8.772,22.005-19.519,22.005h-189.298V740.616z" fill="#F5D8B3" fill-rule="evenodd" stroke="#6C6CAA" stroke-linecap="round" stroke-linejoin="round" stroke-miterlimit="10" stroke-width="20.1478"/>
<line fill="none" stroke="#6C6CAA" stroke-linecap="round" stroke-linejoin="round" stroke-miterlimit="10" stroke-width="20.1478" x1="-260.233" x2="-59.961" y1="822.122" y2="822.122"/>
<line fill="none" stroke="#6C6CAA" stroke-linecap="round" stroke-linejoin="round" stroke-miterlimit="10" stroke-width="20.1478" x1="-429.413" x2="-303.243" y1="822.122" y2="822.122"/>
<line fill="none" stroke="#6C6CAA" stroke-linecap="round" stroke-linejoin="round" stroke-miterlimit="10" stroke-width="20.1478" x1="-468.879" x2="-468.879" y1="824.294" y2="824.065"/>
</g>
<g>
<path clip-rule="evenodd" d="M-698.527,721.697v102.196c0,38.152-46.01,69.36-102.251,69.36    h-18.861c-56.241,0-102.251-31.208-102.251-69.36V721.697H-698.527z" fill="#F5D8B3" fill-rule="evenodd"/>
<path clip-rule="evenodd" d="    M-698.527,581.748c32.321,0,58.527,26.207,58.527,58.529s-26.206,58.528-58.527,58.528v-58.528h-58.527    C-757.055,607.955-730.849,581.748-698.527,581.748L-698.527,581.748z" fill="#F9E5D3" fill-rule="evenodd" stroke="#6C6CAA" stroke-linecap="round" stroke-linejoin="round" stroke-miterlimit="10" stroke-width="20.1764"/>
<path clip-rule="evenodd" d="    M-795.463,982.333c46.096,1.485,81.246,9.23,81.246,18.576c0,10.402-43.58,18.833-97.335,18.833s-97.336-8.431-97.336-18.833    c0-9.603,37.151-17.548,85.161-18.69v-89.051c1.344,0.058,2.715,0.086,4.087,0.086h18.861c1.771,0,3.544-0.058,5.315-0.144    V982.333z" fill="#FFFFFF" fill-rule="evenodd" stroke="#6C6CAA" stroke-linecap="round" stroke-linejoin="round" stroke-miterlimit="10" stroke-width="20.1764"/>
<path d="    M-698.527,640.277V791c0,56.242-46.01,102.254-102.251,102.254h-18.861c-56.241,0-102.251-46.012-102.251-102.254V640.277    H-698.527z" fill="none" stroke="#6C6CAA" stroke-linecap="round" stroke-linejoin="round" stroke-miterlimit="10" stroke-width="20.1764"/>
<line fill="none" stroke="#6C6CAA" stroke-linecap="round" stroke-linejoin="round" stroke-miterlimit="10" stroke-width="20.1764" x1="-697.67" x2="-697.67" y1="581.833" y2="640.277"/>
<line fill="none" stroke="#6C6CAA" stroke-linecap="round" stroke-linejoin="round" stroke-miterlimit="10" stroke-width="20.1764" x1="-697.384" x2="-645.287" y1="640.563" y2="640.563"/>
<line fill="none" stroke="#6C6CAA" stroke-linecap="round" stroke-linejoin="round" stroke-miterlimit="10" stroke-width="20.1764" x1="-697.498" x2="-657.146" y1="637.248" y2="678.857"/>
<line fill="none" stroke="#6C6CAA" stroke-linecap="round" stroke-linejoin="round" stroke-miterlimit="10" stroke-width="20.1764" x1="-653.374" x2="-694.469" y1="603.039" y2="638.619"/>
<line fill="none" stroke="#6C6CAA" stroke-linecap="round" stroke-linejoin="round" stroke-miterlimit="10" stroke-width="20.1764" x1="-736.879" x2="-696.498" y1="595.923" y2="637.533"/>
<line fill="none" stroke="#6C6CAA" stroke-linecap="round" stroke-linejoin="round" stroke-miterlimit="10" stroke-width="20.1764" x1="-921.891" x2="-698.527" y1="721.697" y2="721.697"/>
<path clip-rule="evenodd" d="    M-808.951,867.561c8.858,0,16.089-7.23,16.089-16.118c0-8.859-7.23-16.09-16.089-16.09c-8.859,0-16.09,7.23-16.09,16.09    C-825.041,860.331-817.811,867.561-808.951,867.561L-808.951,867.561z" fill="#B0F0A8" fill-rule="evenodd" stroke="#6C6CAA" stroke-linecap="round" stroke-linejoin="round" stroke-miterlimit="10" stroke-width="20.1764"/>
<path clip-rule="evenodd" d="    M-755.054,826.637c8.459,0,15.346-6.888,15.346-15.347c0-8.46-6.887-15.347-15.346-15.347s-15.347,6.887-15.347,15.347    C-770.4,819.75-763.513,826.637-755.054,826.637L-755.054,826.637z" fill="#B0F0A8" fill-rule="evenodd" stroke="#6C6CAA" stroke-linecap="round" stroke-linejoin="round" stroke-miterlimit="10" stroke-width="20.1764"/>
<path clip-rule="evenodd" d="    M-780.345,776.596c6.858,0,12.46-5.601,12.46-12.46s-5.602-12.46-12.46-12.46c-6.888,0-12.46,5.602-12.46,12.46    S-787.232,776.596-780.345,776.596L-780.345,776.596z" fill="#B0F0A8" fill-rule="evenodd" stroke="#6C6CAA" stroke-linecap="round" stroke-linejoin="round" stroke-miterlimit="10" stroke-width="20.1764"/>
<polyline fill="none" points="    -995.707,561 -880.682,571.717 -855.732,719.468   " stroke="#6C6CAA" stroke-linecap="round" stroke-linejoin="round" stroke-miterlimit="10" stroke-width="20.1764"/>
</g>
<g>
<path d="    M-1485.308,667.484c0.886-72.847,100.993-69.76,98.422,0v237.201" fill="none" stroke="#6C6CAA" stroke-linecap="round" stroke-linejoin="round" stroke-miterlimit="10" stroke-width="20.1478"/>
<path d="    M-1323.015,667.484c0.857-72.847,100.993-69.76,98.422,0v237.201" fill="none" stroke="#6C6CAA" stroke-linecap="round" stroke-linejoin="round" stroke-miterlimit="10" stroke-width="20.1478"/>
<rect clip-rule="evenodd" fill="#F5D8B3" fill-rule="evenodd" height="32.379" stroke="#6C6CAA" stroke-linecap="round" stroke-linejoin="round" stroke-miterlimit="10" stroke-width="20.1478" width="162.293" x="-1386.886" y="714.353"/>
<rect clip-rule="evenodd" fill="#F5D8B3" fill-rule="evenodd" height="32.38" stroke="#6C6CAA" stroke-linecap="round" stroke-linejoin="round" stroke-miterlimit="10" stroke-width="20.1478" width="162.293" x="-1386.886" y="811.719"/>
<path d="    M-1555.208,893.053c21.69-15.432,42.209-23.548,68.3-8.83c26.807,17.261,61.985,33.779,100.022,20.462    c37.78-18.176,55.354-25.692,77.674-9.06c24.034,17.376,51.954,21.034,84.619,9.06c38.465-17.147,71.387-28.264,99.593,1.058" fill="none" stroke="#6C6CAA" stroke-linecap="round" stroke-linejoin="round" stroke-miterlimit="10" stroke-width="20.1478"/>
<path d="    M-1499.367,942.437c40.294,5.858,76.845,38.724,114.882,3.401c20.462-11.518,45.667-12.575,77.475,0.857    c30.435,14.975,56.927,17.118,78.303,2.571c18.918-14.889,46.353-14.061,69.786-1.714" fill="none" stroke="#6C6CAA" stroke-linecap="round" stroke-linejoin="round" stroke-miterlimit="10" stroke-width="20.1478"/>
<line fill="none" stroke="#6C6CAA" stroke-linecap="round" stroke-linejoin="round" stroke-miterlimit="10" stroke-width="20.1478" x1="-1534.689" x2="-1534.689" y1="929.548" y2="929.32"/>
</g>
</g>
</svg>