<?xml version="1.0" encoding="iso-8859-1"?>
<!-- Uploaded to: SVG Repo, www.svgrepo.com, Generator: SVG Repo Mixer Tools -->
<svg version="1.1" id="Layer_1" xmlns="http://www.w3.org/2000/svg" xmlns:xlink="http://www.w3.org/1999/xlink" 
	 viewBox="0 0 511.999 511.999" xml:space="preserve">
<rect x="110.489" y="17.828" style="fill:#B8E6FF;" width="291.033" height="348.524"/>
<rect x="110.489" y="366.346" style="fill:#4D4D4D;" width="291.033" height="127.82"/>
<rect x="169.764" y="308.855" style="fill:#CCCCCC;" width="172.459" height="57.488"/>
<path style="fill:#808080;" d="M342.231,375.33H169.768c-4.962,0-8.983-4.022-8.983-8.983v-57.488c0-4.961,4.021-8.983,8.983-8.983
	h172.463c4.962,0,8.983,4.022,8.983,8.983v57.488C351.214,371.308,347.193,375.33,342.231,375.33z M178.751,357.364h154.497v-39.522
	H178.751V357.364z"/>
<rect x="190.03" y="403.163" style="fill:#F7B239;" width="131.94" height="57.488"/>
<g>
	
		<rect x="320.496" y="42.16" transform="matrix(-0.7071 -0.7071 0.7071 -0.7071 591.3821 347.2431)" style="fill:#F2F2F2;" width="94.223" height="17.966"/>
	
		<rect x="97.716" y="324.049" transform="matrix(-0.7071 -0.7071 0.7071 -0.7071 11.7476 670.929)" style="fill:#F2F2F2;" width="94.223" height="17.966"/>
</g>
<path style="fill:#333333;" d="M321.971,394.178H190.027c-4.962,0-8.983,4.022-8.983,8.983v57.488c0,4.961,4.021,8.983,8.983,8.983
	h131.944c4.962,0,8.983-4.022,8.983-8.983v-57.488C330.954,398.2,326.934,394.178,321.971,394.178z M312.989,451.666H199.01v-39.522
	h113.978V451.666z"/>
<line style="fill:none;stroke:#333333;stroke-width:15;stroke-linecap:round;stroke-linejoin:round;stroke-miterlimit:10;" x1="8.983" y1="494.166" x2="503.017" y2="494.166"/>
<g>
	<path style="fill:#CCCCCC;" d="M256.004,213.204c12.229,0,22.158,9.917,22.158,22.158c0,12.241-9.929,22.158-22.158,22.158
		c-12.241,0-22.158-9.917-22.158-22.158C233.846,223.121,243.763,213.204,256.004,213.204z"/>
	<path style="fill:#CCCCCC;" d="M317.075,176.075v13.175H194.92v-13.175v-63.85c0-7.881,6.396-14.277,14.277-14.277h93.602
		c7.893,0,14.277,6.396,14.277,14.277L317.075,176.075L317.075,176.075z"/>
</g>
<path style="fill:#666666;" d="M317.075,208.414v58.496c0,7.881-6.384,14.277-14.277,14.277h-93.602
	c-7.881,0-14.277-6.396-14.277-14.277v-58.496V189.25h122.155V208.414z M278.161,235.362c0-12.241-9.929-22.158-22.158-22.158
	c-12.241,0-22.158,9.917-22.158,22.158c0,12.241,9.917,22.158,22.158,22.158C268.232,257.52,278.161,247.603,278.161,235.362z"/>
<g>
	<path style="fill:#F9C067;" d="M194.92,189.25v19.163c0,8.264-6.707,14.971-14.971,14.971s-14.971-6.707-14.971-14.971v-32.338
		c0-4.132,1.677-7.881,4.384-10.588c2.707-2.707,6.456-4.384,10.588-4.384c8.264,0,14.971,6.707,14.971,14.971V189.25z"/>
	<path style="fill:#F9C067;" d="M347.018,176.075v32.338c0,8.264-6.695,14.971-14.971,14.971c-8.264,0-14.971-6.707-14.971-14.971
		V189.25v-13.175c0-4.132,1.677-7.881,4.384-10.588c2.719-2.707,6.456-4.384,10.588-4.384
		C340.323,161.104,347.018,167.811,347.018,176.075z"/>
</g>
<g>
	
		<rect x="205.866" y="134.837" transform="matrix(-0.7071 -0.7071 0.7071 -0.7071 360.4954 436.9622)" style="fill:#F2F2F2;" width="129.759" height="17.966"/>
	
		<rect x="183.623" y="146.595" transform="matrix(-0.7071 -0.7071 0.7071 -0.7071 284.7274 429.0928)" style="fill:#F2F2F2;" width="95.218" height="17.966"/>
</g>
<g>
	<path style="fill:#333333;" d="M321.971,394.178H190.027c-4.962,0-8.983,4.022-8.983,8.983v57.488c0,4.961,4.021,8.983,8.983,8.983
		h131.944c4.962,0,8.983-4.022,8.983-8.983v-57.488C330.954,398.2,326.934,394.178,321.971,394.178z M312.989,451.666H199.01
		v-39.522h113.978V451.666z"/>
	<path style="fill:#333333;" d="M503.016,485.188h-92.519V366.347V17.829c0-4.961-4.021-8.983-8.983-8.983h-291.03
		c-4.962,0-8.983,4.022-8.983,8.983v348.518v118.841H8.983c-4.962,0-8.983,4.022-8.983,8.983s4.021,8.983,8.983,8.983h494.033
		c4.962,0,8.983-4.022,8.983-8.983S507.978,485.188,503.016,485.188z M119.467,26.812h273.064v330.552h-41.318v-48.505
		c0-4.961-4.021-8.983-8.983-8.983H169.768c-4.962,0-8.983,4.022-8.983,8.983v48.505h-41.318V26.812z M333.248,357.364H178.751
		v-39.522h154.497V357.364z M119.467,375.33h50.301h172.463h50.301v109.858H119.467V375.33z"/>
</g>
<g>
	<path style="fill:#4D4D4D;" d="M256,204.222c-17.172,0-31.141,13.97-31.141,31.141s13.969,31.141,31.141,31.141
		s31.141-13.97,31.141-31.141S273.172,204.222,256,204.222z M256,248.537c-7.264,0-13.175-5.911-13.175-13.175
		c0-7.264,5.911-13.175,13.175-13.175s13.175,5.911,13.175,13.175C269.175,242.626,263.265,248.537,256,248.537z"/>
	<path style="fill:#4D4D4D;" d="M179.949,232.368c2.071,0,4.07-0.292,5.987-0.788v35.329c0,12.828,10.437,23.263,23.264,23.263
		H302.8c12.828,0,23.263-10.436,23.263-23.263v-35.33c1.918,0.497,3.918,0.788,5.989,0.788c13.208,0,23.954-10.746,23.954-23.954
		v-32.34v-69.799c0-32.177-26.177-58.355-58.355-58.355h-83.302c-32.177,0-58.355,26.177-58.355,58.355v69.801v32.34
		C155.994,221.622,166.74,232.368,179.949,232.368z M308.097,180.267H203.902v-68.039c0-2.921,2.376-5.297,5.299-5.297H302.8
		c2.92,0,5.297,2.376,5.297,5.297V180.267z M308.097,266.909c0,2.921-2.376,5.298-5.297,5.298H209.2
		c-2.921,0-5.299-2.376-5.299-5.298v-68.676h104.195V266.909z M338.04,208.414c0,3.302-2.686,5.989-5.989,5.989
		s-5.989-2.686-5.989-5.989v-32.34c0-3.302,2.686-5.989,5.989-5.989s5.989,2.686,5.989,5.989V208.414z M214.349,65.885h83.302
		c22.27,0,40.389,18.118,40.389,40.389v46.635c-1.918-0.497-3.918-0.788-5.989-0.788s-4.071,0.292-5.989,0.788v-40.682
		c0-12.828-10.436-23.263-23.263-23.263h-93.599c-12.828,0-23.264,10.436-23.264,23.263v40.68c-1.918-0.496-3.917-0.788-5.987-0.788
		c-2.071,0-4.071,0.292-5.989,0.788v-46.636C173.96,84.003,192.079,65.885,214.349,65.885z M179.949,170.087
		c3.302,0,5.987,2.686,5.987,5.989v32.34c0,3.302-2.685,5.989-5.987,5.989s-5.989-2.686-5.989-5.989v-32.34
		C173.96,172.772,176.646,170.087,179.949,170.087z"/>
</g>
<rect x="247.557" y="72.617" transform="matrix(-0.7071 -0.7071 0.7071 -0.7071 518.8661 378.1219)" style="fill:#F2F2F2;" width="180.374" height="17.966"/>
<path style="fill:#333333;" d="M503.016,485.188h-92.519V366.347V17.828c0-4.961-4.021-8.983-8.983-8.983h-291.03
	c-4.962,0-8.983,4.022-8.983,8.983v348.519v118.841H8.983c-4.962,0-8.983,4.022-8.983,8.983s4.021,8.983,8.983,8.983h494.033
	c4.962,0,8.983-4.022,8.983-8.983S507.978,485.188,503.016,485.188z M119.467,26.811h273.064v330.553H119.467V26.811z
	 M119.467,375.33h273.064v109.858H119.467V375.33z"/>
</svg>