<?xml version="1.0" ?>
<!DOCTYPE svg  PUBLIC '-//W3C//DTD SVG 1.1//EN'  'http://www.w3.org/Graphics/SVG/1.1/DTD/svg11.dtd'>
<!-- Uploaded to: SVG Repo, www.svgrepo.com, Generator: SVG Repo Mixer Tools -->
<svg fill="#000000" width="800px" height="800px" viewBox="0 0 32 32" style="fill-rule:evenodd;clip-rule:evenodd;stroke-linejoin:round;stroke-miterlimit:2;" version="1.1" xml:space="preserve" xmlns="http://www.w3.org/2000/svg" xmlns:serif="http://www.serif.com/" xmlns:xlink="http://www.w3.org/1999/xlink">
<g transform="matrix(1,0,0,1,-336,-240)">
<g transform="matrix(1,0,0,1,47.9497,-1)">
<path d="M307.874,244C307.874,244 310.088,244.025 311.382,244.04C311.961,244.046 312.508,244.304 312.883,244.745C313.796,245.819 315.568,247.904 316.756,249.302C317.43,250.096 317.382,251.274 316.646,252.011C316.163,252.494 315.613,253.043 315.121,253.536C314.34,254.317 313.074,254.317 312.293,253.536C311.637,252.88 311,252.243 311,252.243C311,252.243 310.583,254.641 310.288,256.342C310.122,257.3 309.29,258 308.317,258L299.683,258C298.71,258 297.878,257.3 297.712,256.342C297.417,254.641 297,252.243 297,252.243C297,252.243 296.363,252.88 295.707,253.536C294.926,254.317 293.66,254.317 292.879,253.536C292.387,253.043 291.837,252.494 291.354,252.011C290.618,251.274 290.57,250.096 291.244,249.302C292.432,247.904 294.204,245.819 295.117,244.745C295.492,244.304 296.039,244.046 296.618,244.04C297.912,244.025 300.126,244 300.126,244C300.571,245.724 302.138,247 304,247C305.862,247 307.429,245.724 307.874,244Z" style="fill:rgb(144,224,239);"/>
</g>
<g transform="matrix(1,0,0,1.08333,0,-21.5)">
<path d="M346,257.077C346,257.077 344.323,262.752 343.477,265.617C343.198,266.56 343.764,267.541 344.768,267.853C349.956,269.488 354.044,269.488 359.227,267.841C360.225,267.531 360.788,266.557 360.511,265.62C359.677,262.752 358,257.077 358,257.077L346,257.077Z" style="fill:rgb(144,224,239);"/>
</g>
<path d="M345.088,256.59C345.067,256.637 345.049,256.686 345.035,256.737C345.035,256.737 343.359,262.885 342.512,265.988C342.094,267.521 342.943,269.115 344.449,269.621C349.865,271.471 354.137,271.47 359.553,269.607C361.046,269.104 361.892,267.518 361.476,265.991C360.642,262.887 358.965,256.737 358.965,256.737C358.942,256.652 358.908,256.573 358.866,256.5C359.038,256.201 359.161,255.869 359.223,255.513L359.606,253.31C360.782,254.414 362.63,254.391 363.778,253.243L365.303,251.718C366.408,250.613 366.479,248.845 365.467,247.654C364.28,246.257 362.507,244.171 361.595,243.097C361.032,242.435 360.211,242.05 359.343,242.04C358.049,242.025 355.835,242 355.835,242C355.375,241.995 354.97,242.305 354.855,242.75C354.522,244.044 353.346,245 351.95,245C350.553,245 349.378,244.044 349.044,242.75C348.929,242.305 348.525,241.995 348.065,242C348.065,242 345.85,242.025 344.557,242.04C343.688,242.05 342.867,242.435 342.305,243.097C341.392,244.171 339.62,246.257 338.432,247.654C337.42,248.845 337.492,250.613 338.597,251.718L340.121,253.243C341.27,254.391 343.118,254.414 344.294,253.31L344.677,255.513C344.745,255.906 344.887,256.269 345.088,256.59ZM346.764,258L357.236,258C357.706,259.725 358.887,264.065 359.545,266.514C359.545,266.515 359.546,266.516 359.546,266.518C359.684,267.022 359.404,267.547 358.908,267.713C358.906,267.714 358.904,267.715 358.902,267.716C353.951,269.419 350.046,269.419 345.092,267.727C345.09,267.727 345.089,267.726 345.087,267.726C344.585,267.557 344.302,267.026 344.442,266.515L346.764,258ZM356.529,244.008L359.32,244.04C359.609,244.043 359.883,244.172 360.071,244.392L363.943,248.949C364.281,249.346 364.257,249.936 363.888,250.304L362.364,251.828C361.973,252.219 361.34,252.219 360.95,251.828C360.95,251.828 359.657,250.536 359.657,250.536C359.393,250.272 359.004,250.177 358.648,250.289C358.292,250.402 358.028,250.704 357.964,251.072C357.964,251.072 357.548,253.47 357.252,255.171C357.169,255.65 356.753,256 356.267,256C356.267,256 347.632,256 347.632,256C347.146,256 346.73,255.65 346.647,255.171C346.352,253.47 345.935,251.072 345.935,251.072C345.871,250.704 345.608,250.402 345.252,250.289C344.896,250.177 344.507,250.272 344.243,250.536L342.95,251.828C342.559,252.219 341.926,252.219 341.536,251.828L340.011,250.304C339.643,249.936 339.619,249.346 339.956,248.949L343.829,244.392C344.016,244.172 344.29,244.043 344.579,244.04C344.579,244.04 347.37,244.008 347.37,244.008C348.144,245.769 349.904,247 351.95,247C353.995,247 355.755,245.769 356.529,244.008Z" style="fill:rgb(25,144,167);"/>
</g>
</svg>