<?xml version="1.0" encoding="iso-8859-1"?>
<!-- Uploaded to: SVG Repo, www.svgrepo.com, Generator: SVG Repo Mixer Tools -->
<svg version="1.1" id="Layer_1" xmlns="http://www.w3.org/2000/svg" xmlns:xlink="http://www.w3.org/1999/xlink" 
	 viewBox="0 0 308.001 308.001" xml:space="preserve">
<g>
	<path style="fill:#808285;" d="M244.347,248.423h31.229c15.146,0,27.424-12.278,27.424-27.424V154.57
		c0-15.146-12.278-27.424-27.424-27.424h-42.198v110.307C233.378,243.512,238.289,248.423,244.347,248.423z"/>
	<path style="fill:#80D0E1;" d="M269.908,187.784c0-18.276,14.816-33.092,33.092-33.092v66.183
		C284.724,220.876,269.908,206.06,269.908,187.784z"/>
	<path style="fill:#808285;" d="M63.653,248.423H32.424C17.278,248.423,5,236.145,5,220.999V154.57
		c0-15.146,12.278-27.424,27.424-27.424h42.198v110.307C74.622,243.512,69.711,248.423,63.653,248.423z"/>
	<path style="fill:#A7A9AC;" d="M67.235,13.475c-15.146,0-27.424,12.278-27.424,27.424v7.387v78.86h34.811V61.998
		c0-7.573,6.139-13.712,13.712-13.712h131.331c7.573,0,13.712,6.139,13.712,13.712v65.148h34.811v-78.86v-7.387
		c0-15.146-12.278-27.424-27.424-27.424C234.512,13.475,62.907,13.475,67.235,13.475z"/>
	<path style="fill:#80D0E1;" d="M38.092,187.784c0-18.276-14.816-33.092-33.092-33.092v66.183
		C23.276,220.876,38.092,206.06,38.092,187.784z"/>
	<g>
		<rect x="152.323" y="275.846" style="fill:#A7A9AC;" width="31.375" height="18.681"/>
		<path style="fill:#393654;" d="M275.576,122.146h-2.387V40.898c0-17.879-14.545-32.424-32.424-32.424H67.235
			c-17.879,0-32.424,14.545-32.424,32.424v81.247h-2.387C14.545,122.146,0,136.691,0,154.57v0.122v66.184v0.123
			c0,17.879,14.545,32.424,32.424,32.424h31.229c8.806,0,15.97-7.164,15.97-15.97c0-10.783,0-165.215,0-175.455
			c0-4.805,3.908-8.713,8.712-8.713h131.331c4.804,0,8.712,3.908,8.712,8.713c0,10.252,0,164.689,0,175.455
			c0,8.806,7.164,15.97,15.97,15.97h4.285v12.604c0,7.808-6.352,14.159-14.16,14.159h-45.774v-4.34c0-2.762-2.239-5-5-5h-31.374
			c-2.761,0-5,2.238-5,5v18.681c0,2.762,2.239,5,5,5h31.374c2.761,0,5-2.238,5-5v-4.341h45.774c13.322,0,24.16-10.838,24.16-24.159
			v-12.604h16.944c17.878,0,32.424-14.545,32.424-32.424v-0.123v-66.184v-0.122C308,136.691,293.455,122.146,275.576,122.146z
			 M178.698,289.527h-21.374v-8.681h21.374V289.527z M274.908,187.784c0-13.783,9.98-25.28,23.092-27.646v55.293
			C284.888,213.065,274.908,201.567,274.908,187.784z M33.092,187.784c0,13.783-9.979,25.28-23.092,27.646v-55.293
			C23.112,162.504,33.092,174.001,33.092,187.784z M69.623,237.453c0,3.292-2.678,5.97-5.97,5.97H32.424
			c-10.831,0-19.891-7.718-21.973-17.943c18.43-2.653,32.641-18.543,32.641-37.696s-14.211-35.043-32.641-37.696
			c2.082-10.225,11.143-17.943,21.973-17.943h7.387h29.812V237.453z M219.665,43.285H88.334c-10.318,0-18.712,8.395-18.712,18.713
			v60.147H44.811V40.898c0-12.364,10.06-22.424,22.424-22.424h173.529c12.365,0,22.424,10.06,22.424,22.424v81.247h-24.812V61.998
			C238.377,51.68,229.983,43.285,219.665,43.285z M275.576,243.423h-31.229c-3.291,0-5.97-2.678-5.97-5.97V132.146h29.812h7.387
			c10.83,0,19.891,7.718,21.973,17.943c-18.43,2.653-32.641,18.543-32.641,37.696s14.211,35.043,32.641,37.696
			C295.467,235.705,286.407,243.423,275.576,243.423z"/>
	</g>
</g>
</svg>