<?xml version="1.0" encoding="utf-8"?>
<!-- Uploaded to: SVG Repo, www.svgrepo.com, Generator: SVG Repo Mixer Tools -->
<svg width="800px" height="800px" viewBox="0 -19.98 83.842 83.842" xmlns="http://www.w3.org/2000/svg">
  <g id="weight_dumbbell" data-name="weight dumbbell" transform="translate(-863.093 -446.799)">
    <g id="Group_133" data-name="Group 133">
      <path id="Path_338" data-name="Path 338" d="M871.672,474.615a1.514,1.514,0,0,1-1.508,1.511h-5.569a1.512,1.512,0,0,1-1.5-1.511v-11.75a1.517,1.517,0,0,1,1.5-1.511h5.569a1.519,1.519,0,0,1,1.508,1.511Z" fill="#163844"/>
    </g>
    <path id="Path_339" data-name="Path 339" d="M870.164,461.354H866.6v14.772h3.568a1.514,1.514,0,0,0,1.508-1.511v-11.75A1.519,1.519,0,0,0,870.164,461.354Z"/>
    <g id="Group_134" data-name="Group 134">
      <path id="Path_340" data-name="Path 340" d="M876.205,482.679a2.24,2.24,0,0,1-2.228,2.237h-4.123a2.244,2.244,0,0,1-2.233-2.237V454.8a2.243,2.243,0,0,1,2.233-2.233h4.123a2.239,2.239,0,0,1,2.228,2.233Z" fill="#163844"/>
    </g>
    <path id="Path_341" data-name="Path 341" d="M873.977,452.567H872.5v32.349h1.478a2.24,2.24,0,0,0,2.228-2.237V454.8A2.239,2.239,0,0,0,873.977,452.567Z"/>
    <g id="Group_135" data-name="Group 135">
      <path id="Path_342" data-name="Path 342" d="M888.156,487.292a3.4,3.4,0,0,1-3.391,3.385h-7.844a3.4,3.4,0,0,1-3.4-3.385V450.2a3.407,3.407,0,0,1,3.4-3.4h7.844a3.406,3.406,0,0,1,3.391,3.4Z" fill="#163844"/>
    </g>
    <g id="Group_136" data-name="Group 136">
      <path id="Path_343" data-name="Path 343" d="M938.35,462.865a1.52,1.52,0,0,1,1.512-1.511h5.57a1.515,1.515,0,0,1,1.5,1.511v11.75a1.51,1.51,0,0,1-1.5,1.511h-5.57a1.514,1.514,0,0,1-1.512-1.511Z" fill="#163844"/>
    </g>
    <path id="Path_344" data-name="Path 344" d="M939.862,476.126h3.574V461.354h-3.574a1.52,1.52,0,0,0-1.512,1.511v11.75A1.514,1.514,0,0,0,939.862,476.126Z"/>
    <g id="Group_137" data-name="Group 137">
      <path id="Path_345" data-name="Path 345" d="M933.821,454.8a2.236,2.236,0,0,1,2.229-2.233h4.128a2.239,2.239,0,0,1,2.228,2.233v27.879a2.24,2.24,0,0,1-2.228,2.237H936.05a2.237,2.237,0,0,1-2.229-2.237Z" fill="#163844"/>
    </g>
    <path id="Path_346" data-name="Path 346" d="M936.05,484.916h1.477V452.567H936.05a2.236,2.236,0,0,0-2.229,2.233v27.879A2.237,2.237,0,0,0,936.05,484.916Z"/>
    <g id="Group_138" data-name="Group 138">
      <path id="Path_347" data-name="Path 347" d="M921.87,450.2a3.407,3.407,0,0,1,3.4-3.4h7.843a3.4,3.4,0,0,1,3.387,3.4v37.1a3.391,3.391,0,0,1-3.387,3.385h-7.843a3.4,3.4,0,0,1-3.4-3.385Z" fill="#163844"/>
    </g>
    <rect id="Rectangle_32" data-name="Rectangle 32" width="33.714" height="10.567" transform="translate(888.156 463.456)" fill="#f4f4f4"/>
  </g>
</svg>